<svg width="364" height="140" viewBox="0 0 364 140" fill="none" xmlns="http://www.w3.org/2000/svg">
<g filter="url(#filter0_dd_0_235)">
<path d="M40 28C40 23.5817 43.5817 20 48 20H315.4C319.818 20 323.4 23.5817 323.4 28V72C323.4 76.4183 319.818 80 315.4 80H48C43.5817 80 40 76.4183 40 72V28Z" fill="#F17228"/>
<path d="M145.106 56.216C144.05 56.216 143.12 55.97 142.316 55.478C141.524 54.986 140.9 54.284 140.444 53.372C140 52.448 139.778 51.35 139.778 50.078C139.778 48.794 140 47.708 140.444 46.82C140.9 45.92 141.524 45.236 142.316 44.768C143.12 44.288 144.05 44.048 145.106 44.048C146.162 44.048 147.086 44.288 147.878 44.768C148.682 45.236 149.306 45.92 149.75 46.82C150.206 47.72 150.434 48.806 150.434 50.078C150.434 51.35 150.206 52.448 149.75 53.372C149.306 54.284 148.682 54.986 147.878 55.478C147.086 55.97 146.162 56.216 145.106 56.216ZM145.106 53.93C145.91 53.93 146.546 53.582 147.014 52.886C147.482 52.19 147.716 51.254 147.716 50.078C147.716 48.902 147.482 47.984 147.014 47.324C146.546 46.664 145.91 46.334 145.106 46.334C144.302 46.334 143.666 46.664 143.198 47.324C142.73 47.984 142.496 48.902 142.496 50.078C142.496 51.254 142.73 52.19 143.198 52.886C143.666 53.582 144.302 53.93 145.106 53.93ZM152.425 56V47.072H154.585L154.765 48.638H154.837C155.161 48.038 155.551 47.594 156.007 47.306C156.463 47.006 156.919 46.856 157.375 46.856C157.627 46.856 157.837 46.874 158.005 46.91C158.173 46.934 158.317 46.976 158.437 47.036L158.005 49.322C157.849 49.274 157.693 49.238 157.537 49.214C157.393 49.19 157.225 49.178 157.033 49.178C156.697 49.178 156.343 49.304 155.971 49.556C155.611 49.796 155.311 50.216 155.071 50.816V56H152.425ZM162.607 56.216C161.503 56.216 160.615 55.802 159.943 54.974C159.283 54.134 158.953 52.988 158.953 51.536C158.953 50.564 159.127 49.73 159.475 49.034C159.835 48.326 160.297 47.786 160.861 47.414C161.437 47.042 162.037 46.856 162.661 46.856C163.153 46.856 163.567 46.94 163.903 47.108C164.239 47.276 164.557 47.504 164.857 47.792L164.749 46.424V43.382H167.395V56H165.235L165.055 55.118H164.983C164.671 55.43 164.305 55.694 163.885 55.91C163.465 56.114 163.039 56.216 162.607 56.216ZM163.291 54.056C163.579 54.056 163.837 53.996 164.065 53.876C164.305 53.756 164.533 53.546 164.749 53.246V49.592C164.521 49.376 164.275 49.226 164.011 49.142C163.759 49.058 163.513 49.016 163.273 49.016C162.853 49.016 162.481 49.22 162.157 49.628C161.833 50.024 161.671 50.648 161.671 51.5C161.671 52.376 161.809 53.024 162.085 53.444C162.373 53.852 162.775 54.056 163.291 54.056ZM173.735 56.216C172.883 56.216 172.115 56.03 171.431 55.658C170.747 55.286 170.207 54.752 169.811 54.056C169.415 53.36 169.217 52.52 169.217 51.536C169.217 50.564 169.415 49.73 169.811 49.034C170.219 48.338 170.747 47.804 171.395 47.432C172.043 47.048 172.721 46.856 173.429 46.856C174.281 46.856 174.983 47.048 175.535 47.432C176.099 47.804 176.519 48.314 176.795 48.962C177.083 49.598 177.227 50.324 177.227 51.14C177.227 51.368 177.215 51.596 177.191 51.824C177.167 52.04 177.143 52.202 177.119 52.31H171.773C171.893 52.958 172.163 53.438 172.583 53.75C173.003 54.05 173.507 54.2 174.095 54.2C174.731 54.2 175.373 54.002 176.021 53.606L176.903 55.208C176.447 55.52 175.937 55.766 175.373 55.946C174.809 56.126 174.263 56.216 173.735 56.216ZM171.755 50.564H174.977C174.977 50.072 174.857 49.67 174.617 49.358C174.389 49.034 174.011 48.872 173.483 48.872C173.075 48.872 172.709 49.016 172.385 49.304C172.061 49.58 171.851 50 171.755 50.564ZM179.056 56V47.072H181.216L181.396 48.638H181.468C181.792 48.038 182.182 47.594 182.638 47.306C183.094 47.006 183.55 46.856 184.006 46.856C184.258 46.856 184.468 46.874 184.636 46.91C184.804 46.934 184.948 46.976 185.068 47.036L184.636 49.322C184.48 49.274 184.324 49.238 184.168 49.214C184.024 49.19 183.856 49.178 183.664 49.178C183.328 49.178 182.974 49.304 182.602 49.556C182.242 49.796 181.942 50.216 181.702 50.816V56H179.056ZM190.047 56V44.264H192.765L195.825 50.096L196.977 52.688H197.049C197.001 52.064 196.935 51.368 196.851 50.6C196.767 49.832 196.725 49.1 196.725 48.404V44.264H199.245V56H196.527L193.467 50.15L192.315 47.594H192.243C192.303 48.242 192.369 48.938 192.441 49.682C192.525 50.426 192.567 51.146 192.567 51.842V56H190.047ZM205.636 56.216C204.88 56.216 204.166 56.036 203.494 55.676C202.834 55.304 202.3 54.77 201.892 54.074C201.484 53.366 201.28 52.52 201.28 51.536C201.28 50.54 201.484 49.694 201.892 48.998C202.3 48.302 202.834 47.774 203.494 47.414C204.166 47.042 204.88 46.856 205.636 46.856C206.392 46.856 207.1 47.042 207.76 47.414C208.42 47.774 208.954 48.302 209.362 48.998C209.77 49.694 209.974 50.54 209.974 51.536C209.974 52.52 209.77 53.366 209.362 54.074C208.954 54.77 208.42 55.304 207.76 55.676C207.1 56.036 206.392 56.216 205.636 56.216ZM205.636 54.074C206.176 54.074 206.584 53.846 206.86 53.39C207.136 52.922 207.274 52.304 207.274 51.536C207.274 50.756 207.136 50.138 206.86 49.682C206.584 49.226 206.176 48.998 205.636 48.998C205.084 48.998 204.67 49.226 204.394 49.682C204.13 50.138 203.998 50.756 203.998 51.536C203.998 52.304 204.13 52.922 204.394 53.39C204.67 53.846 205.084 54.074 205.636 54.074ZM213.139 56L210.907 47.072H213.535L214.399 51.212C214.471 51.656 214.537 52.094 214.597 52.526C214.657 52.958 214.723 53.402 214.795 53.858H214.867C214.951 53.402 215.029 52.952 215.101 52.508C215.185 52.064 215.281 51.632 215.389 51.212L216.379 47.072H218.665L219.673 51.212C219.781 51.656 219.877 52.094 219.961 52.526C220.057 52.958 220.147 53.402 220.231 53.858H220.303C220.387 53.402 220.453 52.958 220.501 52.526C220.561 52.094 220.633 51.656 220.717 51.212L221.563 47.072H224.011L221.869 56H218.773L217.963 52.436C217.879 52.016 217.795 51.596 217.711 51.176C217.639 50.756 217.561 50.306 217.477 49.826H217.405C217.321 50.306 217.243 50.756 217.171 51.176C217.111 51.596 217.039 52.016 216.955 52.436L216.163 56H213.139Z" fill="white"/>
</g>
<defs>
<filter id="filter0_dd_0_235" x="0" y="0" width="363.4" height="140" filterUnits="userSpaceOnUse" color-interpolation-filters="sRGB">
<feFlood flood-opacity="0" result="BackgroundImageFix"/>
<feColorMatrix in="SourceAlpha" type="matrix" values="0 0 0 0 0 0 0 0 0 0 0 0 0 0 0 0 0 0 127 0" result="hardAlpha"/>
<feOffset dy="20"/>
<feGaussianBlur stdDeviation="20"/>
<feColorMatrix type="matrix" values="0 0 0 0 0.980392 0 0 0 0 0.388235 0 0 0 0 0.137255 0 0 0 0.24 0"/>
<feBlend mode="normal" in2="BackgroundImageFix" result="effect1_dropShadow_0_235"/>
<feColorMatrix in="SourceAlpha" type="matrix" values="0 0 0 0 0 0 0 0 0 0 0 0 0 0 0 0 0 0 127 0" result="hardAlpha"/>
<feOffset dy="5"/>
<feGaussianBlur stdDeviation="5"/>
<feColorMatrix type="matrix" values="0 0 0 0 0.992157 0 0 0 0 0.447059 0 0 0 0 0.360784 0 0 0 0.22 0"/>
<feBlend mode="normal" in2="effect1_dropShadow_0_235" result="effect2_dropShadow_0_235"/>
<feBlend mode="normal" in="SourceGraphic" in2="effect2_dropShadow_0_235" result="shape"/>
</filter>
</defs>
</svg>
