<svg width="471" height="124" viewBox="0 0 471 124" fill="none" xmlns="http://www.w3.org/2000/svg">
<g filter="url(#filter0_dd_0_185)">
<rect x="32" y="18" width="407" height="60" rx="8" fill="url(#paint0_linear_0_185)"/>
<path d="M145.383 54V42.3H149.667C150.519 42.3 151.305 42.42 152.025 42.66C152.745 42.9 153.321 43.302 153.753 43.866C154.197 44.43 154.419 45.204 154.419 46.188C154.419 47.136 154.197 47.916 153.753 48.528C153.321 49.128 152.745 49.572 152.025 49.86C151.317 50.148 150.555 50.292 149.739 50.292H148.479V54H145.383ZM148.479 47.844H149.595C150.207 47.844 150.657 47.7 150.945 47.412C151.245 47.112 151.395 46.704 151.395 46.188C151.395 45.66 151.233 45.288 150.909 45.072C150.585 44.856 150.123 44.748 149.523 44.748H148.479V47.844ZM156.334 54V42.3H160.762C161.602 42.3 162.376 42.414 163.084 42.642C163.792 42.858 164.362 43.242 164.794 43.794C165.226 44.346 165.442 45.108 165.442 46.08C165.442 46.92 165.268 47.616 164.92 48.168C164.572 48.72 164.116 49.152 163.552 49.464L166.09 54H162.634L160.618 50.076H159.43V54H156.334ZM159.43 47.628H160.546C161.794 47.628 162.418 47.112 162.418 46.08C162.418 45.576 162.256 45.228 161.932 45.036C161.62 44.844 161.158 44.748 160.546 44.748H159.43V47.628ZM172.604 54.216C171.524 54.216 170.576 53.976 169.76 53.496C168.944 53.004 168.308 52.302 167.852 51.39C167.396 50.478 167.168 49.38 167.168 48.096C167.168 46.812 167.396 45.726 167.852 44.838C168.308 43.938 168.944 43.254 169.76 42.786C170.576 42.318 171.524 42.084 172.604 42.084C173.684 42.084 174.632 42.318 175.448 42.786C176.264 43.254 176.9 43.938 177.356 44.838C177.812 45.726 178.04 46.812 178.04 48.096C178.04 49.38 177.812 50.478 177.356 51.39C176.9 52.302 176.264 53.004 175.448 53.496C174.632 53.976 173.684 54.216 172.604 54.216ZM172.604 51.552C173.312 51.552 173.864 51.24 174.26 50.616C174.668 49.992 174.872 49.152 174.872 48.096C174.872 47.028 174.668 46.206 174.26 45.63C173.864 45.042 173.312 44.748 172.604 44.748C171.908 44.748 171.356 45.042 170.948 45.63C170.54 46.206 170.336 47.028 170.336 48.096C170.336 49.152 170.54 49.992 170.948 50.616C171.356 51.24 171.908 51.552 172.604 51.552ZM185.211 54.216C184.215 54.216 183.291 54 182.439 53.568C181.599 53.124 180.921 52.458 180.405 51.57C179.889 50.682 179.631 49.572 179.631 48.24C179.631 47.256 179.781 46.386 180.081 45.63C180.393 44.862 180.813 44.214 181.341 43.686C181.881 43.158 182.487 42.762 183.159 42.498C183.843 42.222 184.551 42.084 185.283 42.084C186.063 42.084 186.759 42.24 187.371 42.552C187.995 42.852 188.511 43.212 188.919 43.632L187.299 45.612C187.011 45.36 186.711 45.156 186.399 45C186.099 44.832 185.751 44.748 185.355 44.748C184.899 44.748 184.473 44.886 184.077 45.162C183.693 45.426 183.381 45.81 183.141 46.314C182.913 46.818 182.799 47.424 182.799 48.132C182.799 49.224 183.027 50.07 183.483 50.67C183.951 51.258 184.563 51.552 185.319 51.552C185.775 51.552 186.177 51.45 186.525 51.246C186.885 51.042 187.191 50.808 187.443 50.544L189.063 52.488C188.571 53.064 187.995 53.496 187.335 53.784C186.675 54.072 185.967 54.216 185.211 54.216ZM190.682 54V42.3H198.242V44.892H193.778V46.728H197.594V49.32H193.778V51.408H198.422V54H190.682ZM200.684 54V42.3H208.244V44.892H203.78V46.728H207.596V49.32H203.78V51.408H208.424V54H200.684ZM210.686 54V42.3H214.142C215.33 42.3 216.374 42.498 217.274 42.894C218.186 43.278 218.894 43.896 219.398 44.748C219.902 45.6 220.154 46.716 220.154 48.096C220.154 49.476 219.902 50.604 219.398 51.48C218.894 52.344 218.204 52.98 217.328 53.388C216.452 53.796 215.45 54 214.322 54H210.686ZM213.782 51.516H213.962C214.526 51.516 215.036 51.42 215.492 51.228C215.948 51.036 216.308 50.694 216.572 50.202C216.848 49.71 216.986 49.008 216.986 48.096C216.986 47.184 216.848 46.494 216.572 46.026C216.308 45.546 215.948 45.222 215.492 45.054C215.036 44.874 214.526 44.784 213.962 44.784H213.782V51.516ZM228.07 54V44.892H224.974V42.3H234.262V44.892H231.166V54H228.07ZM240.385 54.216C239.305 54.216 238.357 53.976 237.541 53.496C236.725 53.004 236.089 52.302 235.633 51.39C235.177 50.478 234.949 49.38 234.949 48.096C234.949 46.812 235.177 45.726 235.633 44.838C236.089 43.938 236.725 43.254 237.541 42.786C238.357 42.318 239.305 42.084 240.385 42.084C241.465 42.084 242.413 42.318 243.229 42.786C244.045 43.254 244.681 43.938 245.137 44.838C245.593 45.726 245.821 46.812 245.821 48.096C245.821 49.38 245.593 50.478 245.137 51.39C244.681 52.302 244.045 53.004 243.229 53.496C242.413 53.976 241.465 54.216 240.385 54.216ZM240.385 51.552C241.093 51.552 241.645 51.24 242.041 50.616C242.449 49.992 242.653 49.152 242.653 48.096C242.653 47.028 242.449 46.206 242.041 45.63C241.645 45.042 241.093 44.748 240.385 44.748C239.689 44.748 239.137 45.042 238.729 45.63C238.321 46.206 238.117 47.028 238.117 48.096C238.117 49.152 238.321 49.992 238.729 50.616C239.137 51.24 239.689 51.552 240.385 51.552ZM256.452 54.216C255.372 54.216 254.424 53.976 253.608 53.496C252.792 53.004 252.156 52.302 251.7 51.39C251.244 50.478 251.016 49.38 251.016 48.096C251.016 46.812 251.244 45.726 251.7 44.838C252.156 43.938 252.792 43.254 253.608 42.786C254.424 42.318 255.372 42.084 256.452 42.084C257.532 42.084 258.48 42.318 259.296 42.786C260.112 43.254 260.748 43.938 261.204 44.838C261.66 45.726 261.888 46.812 261.888 48.096C261.888 49.38 261.66 50.478 261.204 51.39C260.748 52.302 260.112 53.004 259.296 53.496C258.48 53.976 257.532 54.216 256.452 54.216ZM256.452 51.552C257.16 51.552 257.712 51.24 258.108 50.616C258.516 49.992 258.72 49.152 258.72 48.096C258.72 47.028 258.516 46.206 258.108 45.63C257.712 45.042 257.16 44.748 256.452 44.748C255.756 44.748 255.204 45.042 254.796 45.63C254.388 46.206 254.184 47.028 254.184 48.096C254.184 49.152 254.388 49.992 254.796 50.616C255.204 51.24 255.756 51.552 256.452 51.552ZM263.983 54V42.3H268.411C269.251 42.3 270.025 42.414 270.733 42.642C271.441 42.858 272.011 43.242 272.443 43.794C272.875 44.346 273.091 45.108 273.091 46.08C273.091 46.92 272.917 47.616 272.569 48.168C272.221 48.72 271.765 49.152 271.201 49.464L273.739 54H270.283L268.267 50.076H267.079V54H263.983ZM267.079 47.628H268.195C269.443 47.628 270.067 47.112 270.067 46.08C270.067 45.576 269.905 45.228 269.581 45.036C269.269 44.844 268.807 44.748 268.195 44.748H267.079V47.628ZM275.32 54V42.3H278.776C279.964 42.3 281.008 42.498 281.908 42.894C282.82 43.278 283.528 43.896 284.032 44.748C284.536 45.6 284.788 46.716 284.788 48.096C284.788 49.476 284.536 50.604 284.032 51.48C283.528 52.344 282.838 52.98 281.962 53.388C281.086 53.796 280.084 54 278.956 54H275.32ZM278.416 51.516H278.596C279.16 51.516 279.67 51.42 280.126 51.228C280.582 51.036 280.942 50.694 281.206 50.202C281.482 49.71 281.62 49.008 281.62 48.096C281.62 47.184 281.482 46.494 281.206 46.026C280.942 45.546 280.582 45.222 280.126 45.054C279.67 44.874 279.16 44.784 278.596 44.784H278.416V51.516ZM286.869 54V42.3H294.429V44.892H289.965V46.728H293.781V49.32H289.965V51.408H294.609V54H286.869ZM296.871 54V42.3H301.299C302.139 42.3 302.913 42.414 303.621 42.642C304.329 42.858 304.899 43.242 305.331 43.794C305.763 44.346 305.979 45.108 305.979 46.08C305.979 46.92 305.805 47.616 305.457 48.168C305.109 48.72 304.653 49.152 304.089 49.464L306.627 54H303.171L301.155 50.076H299.967V54H296.871ZM299.967 47.628H301.083C302.331 47.628 302.955 47.112 302.955 46.08C302.955 45.576 302.793 45.228 302.469 45.036C302.157 44.844 301.695 44.748 301.083 44.748H299.967V47.628Z" fill="white"/>
<path d="M325.906 48.5312L319.844 54.625C319.531 54.9062 319.062 54.9062 318.781 54.625L318.062 53.9062C317.781 53.625 317.781 53.1562 318.062 52.8438L322.875 48L318.062 43.1875C317.781 42.875 317.781 42.4062 318.062 42.125L318.781 41.4062C319.062 41.125 319.531 41.125 319.844 41.4062L325.906 47.5C326.188 47.7812 326.188 48.25 325.906 48.5312Z" fill="white"/>
</g>
<defs>
<filter id="filter0_dd_0_185" x="0" y="0" width="471" height="124" filterUnits="userSpaceOnUse" color-interpolation-filters="sRGB">
<feFlood flood-opacity="0" result="BackgroundImageFix"/>
<feColorMatrix in="SourceAlpha" type="matrix" values="0 0 0 0 0 0 0 0 0 0 0 0 0 0 0 0 0 0 127 0" result="hardAlpha"/>
<feOffset dy="14"/>
<feGaussianBlur stdDeviation="16"/>
<feColorMatrix type="matrix" values="0 0 0 0 1 0 0 0 0 0.698039 0 0 0 0 0.054902 0 0 0 0.29 0"/>
<feBlend mode="normal" in2="BackgroundImageFix" result="effect1_dropShadow_0_185"/>
<feColorMatrix in="SourceAlpha" type="matrix" values="0 0 0 0 0 0 0 0 0 0 0 0 0 0 0 0 0 0 127 0" result="hardAlpha"/>
<feOffset dy="5"/>
<feGaussianBlur stdDeviation="4"/>
<feColorMatrix type="matrix" values="0 0 0 0 0.870833 0 0 0 0 0.5926 0 0 0 0 0 0 0 0 0.24 0"/>
<feBlend mode="normal" in2="effect1_dropShadow_0_185" result="effect2_dropShadow_0_185"/>
<feBlend mode="normal" in="SourceGraphic" in2="effect2_dropShadow_0_185" result="shape"/>
</filter>
<linearGradient id="paint0_linear_0_185" x1="-146.781" y1="-56.5001" x2="561.254" y2="181.976" gradientUnits="userSpaceOnUse">
<stop stop-color="#FFB800"/>
<stop offset="1" stop-color="#FF8A00"/>
</linearGradient>
</defs>
</svg>
