<svg width="272" height="46" viewBox="0 0 272 46" fill="none" xmlns="http://www.w3.org/2000/svg">
<path d="M17.7539 29.8242L14.2383 26.3086C14.0625 26.168 13.8516 26.0625 13.6406 26.0625H13.0781C14.0273 24.832 14.625 23.2852 14.625 21.5625C14.625 17.5547 11.3203 14.25 7.3125 14.25C3.26953 14.25 0 17.5547 0 21.5625C0 25.6055 3.26953 28.875 7.3125 28.875C9 28.875 10.5469 28.3125 11.8125 27.3281V27.9258C11.8125 28.1367 11.8828 28.3477 12.0586 28.5234L15.5391 32.0039C15.8906 32.3555 16.418 32.3555 16.7344 32.0039L17.7188 31.0195C18.0703 30.7031 18.0703 30.1758 17.7539 29.8242ZM7.3125 26.0625C4.81641 26.0625 2.8125 24.0586 2.8125 21.5625C2.8125 19.1016 4.81641 17.0625 7.3125 17.0625C9.77344 17.0625 11.8125 19.1016 11.8125 21.5625C11.8125 24.0586 9.77344 26.0625 7.3125 26.0625Z" fill="#FFB30E"/>
<path d="M31.3118 29.216C30.5438 29.216 29.7758 29.078 29.0078 28.802C28.2518 28.514 27.5738 28.088 26.9738 27.524L28.4858 25.706C28.9058 26.066 29.3678 26.36 29.8718 26.588C30.3878 26.816 30.8918 26.93 31.3838 26.93C31.9358 26.93 32.3438 26.828 32.6078 26.624C32.8838 26.42 33.0218 26.144 33.0218 25.796C33.0218 25.616 32.9798 25.46 32.8958 25.328C32.8238 25.196 32.7098 25.082 32.5538 24.986C32.4098 24.878 32.2298 24.782 32.0138 24.698C31.8098 24.602 31.5818 24.5 31.3298 24.392L29.7998 23.744C29.4998 23.624 29.2058 23.468 28.9178 23.276C28.6418 23.084 28.3898 22.862 28.1618 22.61C27.9458 22.346 27.7718 22.046 27.6398 21.71C27.5078 21.362 27.4418 20.972 27.4418 20.54C27.4418 20.06 27.5438 19.61 27.7478 19.19C27.9518 18.758 28.2398 18.386 28.6118 18.074C28.9838 17.75 29.4218 17.498 29.9258 17.318C30.4418 17.138 31.0058 17.048 31.6178 17.048C32.3018 17.048 32.9738 17.18 33.6338 17.444C34.3058 17.708 34.8938 18.092 35.3978 18.596L34.0478 20.27C33.6638 19.97 33.2798 19.742 32.8958 19.586C32.5118 19.418 32.0858 19.334 31.6178 19.334C31.1618 19.334 30.7958 19.43 30.5198 19.622C30.2558 19.802 30.1238 20.06 30.1238 20.396C30.1238 20.576 30.1658 20.732 30.2498 20.864C30.3458 20.984 30.4718 21.098 30.6278 21.206C30.7958 21.302 30.9878 21.398 31.2038 21.494C31.4198 21.578 31.6538 21.674 31.9058 21.782L33.4178 22.394C34.1378 22.682 34.7018 23.078 35.1098 23.582C35.5298 24.086 35.7398 24.752 35.7398 25.58C35.7398 26.072 35.6378 26.54 35.4337 26.984C35.2418 27.416 34.9538 27.8 34.5698 28.136C34.1978 28.46 33.7358 28.724 33.1838 28.928C32.6318 29.12 32.0078 29.216 31.3118 29.216ZM41.5117 29.216C40.8757 29.216 40.2817 29.114 39.7297 28.91C39.1777 28.694 38.6977 28.388 38.2897 27.992C37.8817 27.584 37.5637 27.092 37.3357 26.516C37.1077 25.94 36.9937 25.28 36.9937 24.536C36.9937 23.816 37.1137 23.168 37.3537 22.592C37.5937 22.004 37.9057 21.512 38.2897 21.116C38.6857 20.708 39.1357 20.396 39.6397 20.18C40.1437 19.964 40.6657 19.856 41.2057 19.856C41.8417 19.856 42.3937 19.964 42.8617 20.18C43.3417 20.396 43.7377 20.696 44.0497 21.08C44.3737 21.464 44.6137 21.92 44.7697 22.448C44.9257 22.964 45.0037 23.528 45.0037 24.14C45.0037 24.38 44.9917 24.608 44.9677 24.824C44.9437 25.04 44.9197 25.202 44.8957 25.31H39.5497C39.6697 25.958 39.9337 26.438 40.3417 26.75C40.7617 27.05 41.2717 27.2 41.8717 27.2C42.5077 27.2 43.1497 27.002 43.7977 26.606L44.6797 28.208C44.2237 28.52 43.7137 28.766 43.1497 28.946C42.5977 29.126 42.0517 29.216 41.5117 29.216ZM39.5317 23.564H42.7537C42.7537 23.06 42.6397 22.652 42.4117 22.34C42.1837 22.028 41.7997 21.872 41.2597 21.872C40.8397 21.872 40.4677 22.01 40.1437 22.286C39.8317 22.562 39.6277 22.988 39.5317 23.564ZM48.8888 29.216C48.4808 29.216 48.1088 29.144 47.7728 29C47.4488 28.868 47.1728 28.682 46.9448 28.442C46.7168 28.19 46.5368 27.902 46.4048 27.578C46.2848 27.254 46.2248 26.9 46.2248 26.516C46.2248 25.58 46.6208 24.848 47.4128 24.32C48.2048 23.792 49.4828 23.438 51.2468 23.258C51.2228 22.862 51.1028 22.55 50.8868 22.322C50.6828 22.082 50.3348 21.962 49.8428 21.962C49.4588 21.962 49.0748 22.034 48.6908 22.178C48.3188 22.322 47.9168 22.52 47.4848 22.772L46.5308 21.026C47.1068 20.678 47.7068 20.396 48.3308 20.18C48.9668 19.964 49.6388 19.856 50.3468 19.856C51.4988 19.856 52.3748 20.186 52.9748 20.846C53.5868 21.494 53.8928 22.508 53.8928 23.888V29H51.7328L51.5528 28.082H51.4808C51.0968 28.418 50.6948 28.694 50.2748 28.91C49.8548 29.114 49.3928 29.216 48.8888 29.216ZM49.7888 27.164C50.0888 27.164 50.3468 27.098 50.5628 26.966C50.7788 26.834 51.0068 26.648 51.2468 26.408V24.842C50.3108 24.974 49.6628 25.166 49.3028 25.418C48.9428 25.67 48.7628 25.97 48.7628 26.318C48.7628 26.606 48.8528 26.822 49.0328 26.966C49.2248 27.098 49.4768 27.164 49.7888 27.164ZM56.1309 29V20.072H58.2909L58.4709 21.638H58.5429C58.8669 21.026 59.2569 20.576 59.7129 20.288C60.1689 20 60.6249 19.856 61.0809 19.856C61.3329 19.856 61.5369 19.874 61.6929 19.91C61.8609 19.934 62.0109 19.976 62.1429 20.036L61.7109 22.322C61.5429 22.274 61.3869 22.238 61.2429 22.214C61.0989 22.19 60.9309 22.178 60.7389 22.178C60.4029 22.178 60.0489 22.298 59.6769 22.538C59.3169 22.778 59.0169 23.204 58.7769 23.816V29H56.1309ZM67.015 29.216C66.391 29.216 65.809 29.114 65.269 28.91C64.741 28.694 64.279 28.388 63.883 27.992C63.487 27.596 63.175 27.11 62.947 26.534C62.719 25.946 62.605 25.28 62.605 24.536C62.605 23.792 62.731 23.132 62.983 22.556C63.235 21.968 63.571 21.476 63.991 21.08C64.423 20.684 64.921 20.384 65.485 20.18C66.049 19.964 66.637 19.856 67.249 19.856C67.801 19.856 68.287 19.946 68.707 20.126C69.139 20.306 69.523 20.534 69.859 20.81L68.617 22.52C68.197 22.172 67.795 21.998 67.411 21.998C66.763 21.998 66.253 22.226 65.881 22.682C65.509 23.138 65.323 23.756 65.323 24.536C65.323 25.316 65.509 25.934 65.881 26.39C66.265 26.846 66.745 27.074 67.321 27.074C67.609 27.074 67.885 27.014 68.149 26.894C68.425 26.762 68.683 26.606 68.923 26.426L69.967 28.154C69.523 28.538 69.043 28.814 68.527 28.982C68.011 29.138 67.507 29.216 67.015 29.216ZM71.5294 29V16.382H74.1754V19.478L74.0494 21.08C74.3854 20.78 74.7754 20.504 75.2194 20.252C75.6634 19.988 76.1914 19.856 76.8034 19.856C77.7754 19.856 78.4774 20.174 78.9094 20.81C79.3534 21.446 79.5754 22.328 79.5754 23.456V29H76.9294V23.798C76.9294 23.15 76.8394 22.706 76.6594 22.466C76.4914 22.226 76.2154 22.106 75.8314 22.106C75.4954 22.106 75.2074 22.184 74.9674 22.34C74.7274 22.484 74.4634 22.694 74.1754 22.97V29H71.5294ZM85.6321 29V17.264H93.0301V19.496H88.2781V22.214H92.3461V24.446H88.2781V29H85.6321ZM98.3731 29.216C97.8091 29.216 97.2631 29.114 96.7351 28.91C96.2071 28.694 95.7391 28.388 95.3311 27.992C94.9351 27.596 94.6171 27.11 94.3771 26.534C94.1371 25.946 94.0171 25.28 94.0171 24.536C94.0171 23.792 94.1371 23.132 94.3771 22.556C94.6171 21.968 94.9351 21.476 95.3311 21.08C95.7391 20.684 96.2071 20.384 96.7351 20.18C97.2631 19.964 97.8091 19.856 98.3731 19.856C98.9371 19.856 99.4771 19.964 99.9931 20.18C100.521 20.384 100.983 20.684 101.379 21.08C101.787 21.476 102.111 21.968 102.351 22.556C102.591 23.132 102.711 23.792 102.711 24.536C102.711 25.28 102.591 25.946 102.351 26.534C102.111 27.11 101.787 27.596 101.379 27.992C100.983 28.388 100.521 28.694 99.9931 28.91C99.4771 29.114 98.9371 29.216 98.3731 29.216ZM98.3731 27.074C98.9131 27.074 99.3211 26.846 99.5971 26.39C99.8731 25.934 100.011 25.316 100.011 24.536C100.011 23.756 99.8731 23.138 99.5971 22.682C99.3211 22.226 98.9131 21.998 98.3731 21.998C97.8211 21.998 97.4071 22.226 97.1311 22.682C96.8671 23.138 96.7351 23.756 96.7351 24.536C96.7351 25.316 96.8671 25.934 97.1311 26.39C97.4071 26.846 97.8211 27.074 98.3731 27.074ZM108.358 29.216C107.794 29.216 107.248 29.114 106.72 28.91C106.192 28.694 105.724 28.388 105.316 27.992C104.92 27.596 104.602 27.11 104.362 26.534C104.122 25.946 104.002 25.28 104.002 24.536C104.002 23.792 104.122 23.132 104.362 22.556C104.602 21.968 104.92 21.476 105.316 21.08C105.724 20.684 106.192 20.384 106.72 20.18C107.248 19.964 107.794 19.856 108.358 19.856C108.922 19.856 109.462 19.964 109.978 20.18C110.506 20.384 110.968 20.684 111.364 21.08C111.772 21.476 112.096 21.968 112.336 22.556C112.576 23.132 112.696 23.792 112.696 24.536C112.696 25.28 112.576 25.946 112.336 26.534C112.096 27.11 111.772 27.596 111.364 27.992C110.968 28.388 110.506 28.694 109.978 28.91C109.462 29.114 108.922 29.216 108.358 29.216ZM108.358 27.074C108.898 27.074 109.306 26.846 109.582 26.39C109.858 25.934 109.996 25.316 109.996 24.536C109.996 23.756 109.858 23.138 109.582 22.682C109.306 22.226 108.898 21.998 108.358 21.998C107.806 21.998 107.392 22.226 107.116 22.682C106.852 23.138 106.72 23.756 106.72 24.536C106.72 25.316 106.852 25.934 107.116 26.39C107.392 26.846 107.806 27.074 108.358 27.074ZM117.694 29.216C117.142 29.216 116.638 29.108 116.182 28.892C115.738 28.676 115.354 28.37 115.03 27.974C114.718 27.566 114.472 27.074 114.292 26.498C114.124 25.922 114.04 25.268 114.04 24.536C114.04 23.804 114.142 23.15 114.346 22.574C114.562 21.998 114.838 21.512 115.174 21.116C115.522 20.708 115.918 20.396 116.362 20.18C116.818 19.964 117.28 19.856 117.748 19.856C118.252 19.856 118.666 19.94 118.99 20.108C119.314 20.276 119.632 20.504 119.944 20.792L119.836 19.424V16.382H122.482V29H120.322L120.142 28.118H120.07C119.758 28.43 119.392 28.694 118.972 28.91C118.552 29.114 118.126 29.216 117.694 29.216ZM118.378 27.056C118.666 27.056 118.924 26.996 119.152 26.876C119.392 26.756 119.62 26.546 119.836 26.246V22.592C119.596 22.376 119.35 22.226 119.098 22.142C118.846 22.058 118.6 22.016 118.36 22.016C117.94 22.016 117.568 22.22 117.244 22.628C116.92 23.024 116.758 23.648 116.758 24.5C116.758 25.388 116.896 26.036 117.172 26.444C117.46 26.852 117.862 27.056 118.378 27.056Z" fill="#424242"/>
<path d="M186 23.25C188.461 23.25 190.5 21.2461 190.5 18.75C190.5 16.2891 188.461 14.25 186 14.25C183.504 14.25 181.5 16.2891 181.5 18.75C181.5 21.2461 183.504 23.25 186 23.25ZM189.129 24.375H188.531C187.758 24.7617 186.914 24.9375 186 24.9375C185.086 24.9375 184.207 24.7617 183.434 24.375H182.836C180.234 24.375 178.125 26.5195 178.125 29.1211V30.5625C178.125 31.5117 178.863 32.25 179.812 32.25H192.188C193.102 32.25 193.875 31.5117 193.875 30.5625V29.1211C193.875 26.5195 191.73 24.375 189.129 24.375Z" fill="url(#paint0_linear_0_69)"/>
<path d="M205.413 29V17.264H208.059V26.768H212.703V29H205.413ZM218.102 29.216C217.538 29.216 216.992 29.114 216.464 28.91C215.936 28.694 215.468 28.388 215.06 27.992C214.664 27.596 214.346 27.11 214.106 26.534C213.866 25.946 213.746 25.28 213.746 24.536C213.746 23.792 213.866 23.132 214.106 22.556C214.346 21.968 214.664 21.476 215.06 21.08C215.468 20.684 215.936 20.384 216.464 20.18C216.992 19.964 217.538 19.856 218.102 19.856C218.666 19.856 219.206 19.964 219.722 20.18C220.25 20.384 220.712 20.684 221.108 21.08C221.516 21.476 221.84 21.968 222.08 22.556C222.32 23.132 222.44 23.792 222.44 24.536C222.44 25.28 222.32 25.946 222.08 26.534C221.84 27.11 221.516 27.596 221.108 27.992C220.712 28.388 220.25 28.694 219.722 28.91C219.206 29.114 218.666 29.216 218.102 29.216ZM218.102 27.074C218.642 27.074 219.05 26.846 219.326 26.39C219.602 25.934 219.74 25.316 219.74 24.536C219.74 23.756 219.602 23.138 219.326 22.682C219.05 22.226 218.642 21.998 218.102 21.998C217.55 21.998 217.136 22.226 216.86 22.682C216.596 23.138 216.464 23.756 216.464 24.536C216.464 25.316 216.596 25.934 216.86 26.39C217.136 26.846 217.55 27.074 218.102 27.074ZM227.438 32.798C226.91 32.798 226.418 32.75 225.962 32.654C225.518 32.57 225.122 32.438 224.774 32.258C224.438 32.078 224.174 31.844 223.982 31.556C223.79 31.268 223.694 30.926 223.694 30.53C223.694 29.81 224.12 29.21 224.972 28.73V28.658C224.732 28.502 224.534 28.304 224.378 28.064C224.222 27.824 224.144 27.518 224.144 27.146C224.144 26.822 224.24 26.516 224.432 26.228C224.624 25.928 224.864 25.676 225.152 25.472V25.4C224.84 25.184 224.558 24.878 224.306 24.482C224.066 24.074 223.946 23.606 223.946 23.078C223.946 22.538 224.048 22.07 224.252 21.674C224.456 21.266 224.726 20.93 225.062 20.666C225.41 20.39 225.806 20.186 226.25 20.054C226.694 19.922 227.156 19.856 227.636 19.856C228.164 19.856 228.626 19.928 229.022 20.072H232.28V21.998H230.858C230.942 22.13 231.008 22.298 231.056 22.502C231.116 22.706 231.146 22.928 231.146 23.168C231.146 23.684 231.056 24.134 230.876 24.518C230.696 24.89 230.444 25.202 230.12 25.454C229.808 25.694 229.436 25.874 229.004 25.994C228.584 26.114 228.128 26.174 227.636 26.174C227.288 26.174 226.928 26.114 226.556 25.994C226.436 26.09 226.352 26.186 226.304 26.282C226.256 26.378 226.232 26.504 226.232 26.66C226.232 26.888 226.328 27.056 226.52 27.164C226.724 27.272 227.078 27.326 227.582 27.326H229.022C230.126 27.326 230.966 27.506 231.542 27.866C232.13 28.214 232.424 28.79 232.424 29.594C232.424 30.062 232.304 30.488 232.064 30.872C231.836 31.268 231.506 31.604 231.074 31.88C230.642 32.168 230.12 32.39 229.508 32.546C228.896 32.714 228.206 32.798 227.438 32.798ZM227.636 24.572C227.984 24.572 228.272 24.452 228.5 24.212C228.74 23.96 228.86 23.582 228.86 23.078C228.86 22.61 228.74 22.256 228.5 22.016C228.272 21.764 227.984 21.638 227.636 21.638C227.288 21.638 226.994 21.758 226.754 21.998C226.526 22.238 226.412 22.598 226.412 23.078C226.412 23.582 226.526 23.96 226.754 24.212C226.994 24.452 227.288 24.572 227.636 24.572ZM227.852 31.142C228.452 31.142 228.944 31.034 229.328 30.818C229.712 30.614 229.904 30.356 229.904 30.044C229.904 29.768 229.784 29.582 229.544 29.486C229.316 29.39 228.98 29.342 228.536 29.342H227.618C227.306 29.342 227.054 29.33 226.862 29.306C226.67 29.294 226.502 29.27 226.358 29.234C226.034 29.522 225.872 29.816 225.872 30.116C225.872 30.452 226.052 30.704 226.412 30.872C226.772 31.052 227.252 31.142 227.852 31.142ZM233.867 29V20.072H236.513V29H233.867ZM235.181 18.758C234.737 18.758 234.371 18.632 234.083 18.38C233.795 18.116 233.651 17.78 233.651 17.372C233.651 16.964 233.795 16.634 234.083 16.382C234.371 16.13 234.737 16.004 235.181 16.004C235.637 16.004 236.003 16.13 236.279 16.382C236.567 16.634 236.711 16.964 236.711 17.372C236.711 17.78 236.567 18.116 236.279 18.38C236.003 18.632 235.637 18.758 235.181 18.758ZM238.842 29V20.072H241.002L241.182 21.206H241.254C241.638 20.846 242.058 20.534 242.514 20.27C242.97 19.994 243.504 19.856 244.116 19.856C245.088 19.856 245.79 20.174 246.222 20.81C246.666 21.446 246.888 22.328 246.888 23.456V29H244.242V23.798C244.242 23.15 244.152 22.706 243.972 22.466C243.804 22.226 243.528 22.106 243.144 22.106C242.808 22.106 242.52 22.184 242.28 22.34C242.04 22.484 241.776 22.694 241.488 22.97V29H238.842Z" fill="url(#paint1_linear_0_69)"/>
<rect x="154.5" y="0.5" width="117" height="45" rx="7.5" stroke="#FFAC0D"/>
<defs>
<linearGradient id="paint0_linear_0_69" x1="170.972" y1="-8.35003" x2="201.903" y2="-6.98483" gradientUnits="userSpaceOnUse">
<stop stop-color="#FFB800"/>
<stop offset="1" stop-color="#FF8A00"/>
</linearGradient>
<linearGradient id="paint1_linear_0_69" x1="184.672" y1="-8.35003" x2="268.663" y2="1.84426" gradientUnits="userSpaceOnUse">
<stop stop-color="#FFB800"/>
<stop offset="1" stop-color="#FF8A00"/>
</linearGradient>
</defs>
</svg>
